<?xml version="1.0" encoding="UTF-8"?>
<svg xmlns="http://www.w3.org/2000/svg" xmlns:xlink="http://www.w3.org/1999/xlink" width="198px" height="76px" viewBox="0 0 198 76" version="1.1">
<g id="surface1">
<path style=" stroke:none;fillRule:evenodd;fill:rgb(1.176471%,35.686275%,85.490196%);fill-opacity:1;" d="M 45.734375 11.464844 L 34.835938 40.511719 L 54.019531 69.941406 L 18.414062 75.289062 L 73.664062 76.054688 Z M 45.734375 11.464844 "/>
<path style=" stroke:none;fillRule:evenodd;fill:rgb(1.176471%,35.686275%,85.490196%);fill-opacity:1;" d="M 43.585938 0 L 18.570312 27.707031 L 0 69.175781 L 15.808594 67.074219 Z M 43.585938 0 "/>
<path style=" stroke:none;fillRule:nonzero;fill:rgb(1.176471%,35.686275%,85.490196%);fill-opacity:1;" d="M 94.546875 29.324219 L 82.582031 68.160156 L 86.648438 68.160156 L 89.761719 57.273438 L 102.988281 57.273438 L 106.292969 68.160156 L 110.339844 68.160156 L 98.332031 29.324219 Z M 96.328125 34.039062 L 96.417969 34.039062 C 96.574219 35.230469 96.734375 36.097656 96.894531 36.636719 L 101.789062 53.183594 L 90.976562 53.183594 L 95.828125 36.636719 C 96.019531 36.007812 96.183594 35.140625 96.328125 34.039062 Z M 188.839844 39.777344 C 185.925781 39.777344 183.484375 41.140625 181.511719 43.867188 C 179.554688 46.574219 178.574219 50.085938 178.574219 54.402344 C 178.574219 58.96875 179.472656 62.515625 181.273438 65.042969 C 183.070312 67.554688 185.542969 68.808594 188.6875 68.808594 C 191.910156 68.808594 194.496094 67.925781 196.457031 66.15625 L 196.457031 61.984375 C 194.351562 64.042969 192.046875 65.070312 189.539062 65.070312 C 187.304688 65.070312 185.550781 64.230469 184.273438 62.554688 C 182.996094 60.875 182.332031 58.492188 182.273438 55.402344 L 198 55.402344 L 198 53.074219 C 198 48.90625 197.203125 45.648438 195.605469 43.300781 C 194.011719 40.953125 191.757812 39.777344 188.839844 39.777344 Z M 172.902344 39.941406 C 171.613281 39.941406 170.445312 40.492188 169.402344 41.59375 C 168.355469 42.675781 167.582031 44.191406 167.074219 46.140625 L 166.988281 46.140625 L 166.988281 40.429688 L 163.417969 40.429688 L 163.417969 68.160156 L 166.988281 68.160156 L 166.988281 54.023438 C 166.988281 50.9375 167.496094 48.5 168.507812 46.710938 C 169.539062 44.925781 170.816406 44.03125 172.339844 44.03125 C 173.511719 44.03125 174.410156 44.328125 175.035156 44.921875 L 175.035156 40.320312 C 174.542969 40.066406 173.832031 39.941406 172.902344 39.941406 Z M 113.964844 40.429688 L 113.964844 44.21875 L 125.90625 44.21875 L 112.726562 66.777344 L 112.726562 68.160156 L 131.019531 68.160156 L 131.019531 64.367188 L 117.96875 64.367188 L 131.148438 41.703125 L 131.148438 40.429688 Z M 136.515625 40.429688 L 136.515625 57 C 136.515625 64.871094 139.171875 68.808594 144.480469 68.808594 C 147.582031 68.808594 149.875 67.128906 151.351562 63.769531 L 151.4375 63.769531 L 151.4375 68.160156 L 155.007812 68.160156 L 155.007812 40.429688 L 151.4375 40.429688 L 151.4375 56.40625 C 151.4375 58.988281 150.875 61.082031 149.742188 62.6875 C 148.625 64.277344 147.199219 65.070312 145.457031 65.070312 C 141.859375 65.070312 140.0625 62.148438 140.0625 56.296875 L 140.0625 40.429688 Z M 188.777344 43.515625 C 190.515625 43.515625 191.875 44.230469 192.84375 45.65625 C 193.832031 47.082031 194.332031 49.074219 194.34375 51.640625 L 182.316406 51.640625 C 182.589844 49.21875 183.316406 47.261719 184.492188 45.761719 C 185.664062 44.265625 187.09375 43.515625 188.777344 43.515625 Z M 188.777344 43.515625 "/>
</g>
</svg>
