<?xml version="1.0" encoding="UTF-8"?>
<svg xmlns="http://www.w3.org/2000/svg" xmlns:xlink="http://www.w3.org/1999/xlink" width="198px" height="76px" viewBox="0 0 198 76" version="1.1">
<g id="surface1">
<path style=" stroke:none;fill-rule:nonzero;fill:rgb(64.313725%,20.784314%,94.117647%);fill-opacity:1;" d="M 30.757812 18.144531 L 15.378906 9.082031 L 0 18.144531 L 0 9.082031 L 15.378906 0.0195312 L 30.761719 9.082031 L 30.761719 18.144531 Z M 30.757812 18.144531 "/>
<path style=" stroke:none;fill-rule:nonzero;fill:rgb(0%,0%,0%);fill-opacity:1;" d="M 8.058594 25.753906 L 8.058594 45.726562 C 8.058594 50.886719 11.835938 53.402344 15.378906 53.402344 C 18.957031 53.402344 22.707031 50.824219 22.707031 45.660156 L 22.707031 25.753906 L 30.761719 25.753906 L 30.761719 46.203125 C 30.761719 50.957031 29.296875 54.625 26.367188 57.140625 C 23.4375 59.65625 19.777344 60.878906 15.3125 60.878906 C 10.851562 60.878906 7.1875 59.65625 4.328125 57.140625 C 1.464844 54.628906 0 51.097656 0 46.40625 L 0 25.753906 Z M 100.410156 50.578125 L 106.394531 54.101562 C 102.746094 58.347656 97.878906 60.8125 91.761719 60.8125 C 86.5 60.8125 82.171875 59.179688 78.910156 55.988281 C 75.648438 52.792969 73.984375 48.511719 73.984375 43.144531 L 73.984375 42.875 C 73.984375 37.4375 75.648438 33.089844 78.910156 29.761719 C 82.238281 26.433594 86.4375 24.800781 91.5625 24.800781 C 96.425781 24.800781 100.417969 26.433594 103.476562 29.761719 C 106.609375 33.089844 108.140625 37.167969 108.140625 42.058594 C 108.140625 43.636719 107.964844 45.316406 107.964844 45.316406 L 81.9375 45.316406 C 82.375 50.519531 86.25 53.882812 92.027344 53.882812 C 95.195312 53.882812 97.972656 52.792969 100.410156 50.578125 Z M 85.101562 33.90625 C 83.386719 35.269531 82.398438 36.945312 82.140625 38.933594 L 100.007812 38.933594 C 99.933594 37.011719 99.074219 35.335938 97.488281 33.976562 C 95.820312 32.476562 93.886719 31.730469 91.558594 31.730469 C 89.097656 31.730469 86.898438 32.476562 85.101562 33.902344 Z M 181.511719 65.425781 C 178.246094 73.304688 174.824219 75.980469 169.582031 75.980469 L 165.945312 75.980469 L 165.945312 68.691406 L 168.886719 68.691406 C 170.6875 68.691406 172.363281 68 173.964844 64.238281 L 175.5625 60.46875 L 161.777344 25.753906 L 169.96875 25.753906 L 179.757812 50.757812 L 189.8125 25.753906 L 198 25.753906 Z M 62.125 12.644531 L 70.117188 12.644531 L 70.117188 59.996094 L 62.125 59.996094 L 62.125 56.84375 C 60.304688 58.558594 56.855469 60.742188 51.40625 60.742188 C 46.679688 60.742188 42.683594 59.042969 39.421875 55.644531 C 36.226562 52.179688 34.628906 47.96875 34.628906 42.871094 C 34.628906 37.777344 36.226562 33.5625 39.421875 30.164062 C 42.683594 26.703125 46.679688 25.003906 51.40625 25.003906 C 55.375 25.003906 59.484375 26.4375 62.125 28.855469 Z M 62.726562 42.875 C 62.726562 39.882812 61.722656 37.367188 59.726562 35.402344 C 57.796875 33.429688 55.335938 32.410156 52.46875 32.410156 C 49.605469 32.410156 47.277344 33.429688 45.347656 35.402344 C 43.484375 37.367188 42.550781 39.882812 42.550781 42.875 C 42.550781 45.863281 43.484375 48.378906 45.347656 50.347656 C 47.277344 52.320312 49.605469 53.339844 52.46875 53.339844 C 55.335938 53.339844 57.796875 52.320312 59.726562 50.347656 C 61.722656 48.378906 62.726562 45.863281 62.726562 42.875 Z M 149.355469 25.078125 C 156.304688 25.078125 161.011719 29.867188 161.011719 38.796875 L 161.011719 59.996094 L 153.019531 59.996094 L 153.019531 39.949219 C 153.019531 35.265625 150.820312 32.34375 147.027344 32.34375 C 143.097656 32.34375 140.371094 35.605469 140.371094 40.292969 L 140.371094 60 L 132.445312 60 L 132.445312 39.957031 C 132.445312 35.265625 130.253906 32.34375 126.453125 32.34375 C 122.730469 32.34375 119.929688 35.671875 119.929688 40.292969 L 119.929688 60 L 112.007812 60 L 112.007812 25.757812 L 119.929688 25.757812 L 119.929688 29.320312 C 121.34375 27.550781 124.175781 25.074219 128.984375 25.074219 C 134.671875 25.074219 137.105469 28.433594 137.96875 30.117188 C 140.132812 27.644531 143.285156 25.074219 149.355469 25.074219 Z M 149.355469 25.078125 "/>
</g>
</svg>
