<?xml version="1.0" encoding="UTF-8"?>
<svg xmlns="http://www.w3.org/2000/svg" xmlns:xlink="http://www.w3.org/1999/xlink" width="198px" height="76px" viewBox="0 0 198 76" version="1.1">
<g id="surface1">
<path style=" stroke:none;fillRule:nonzero;fill:rgb(0%,0%,0%);fill-opacity:1;" d="M 1.953125 3.136719 L 3.566406 3.136719 L 3.566406 18.007812 C 3.566406 23.125 5.179688 25.171875 7.324219 25.171875 C 9.464844 25.171875 11.042969 23.0625 11.042969 18.246094 L 11.042969 3.136719 L 12.660156 3.136719 L 12.660156 18.128906 C 12.660156 24.449219 10.253906 27.820312 7.257812 27.820312 C 4.324219 27.820312 1.886719 25.292969 1.886719 18.667969 C 1.953125 18.667969 1.953125 3.136719 1.953125 3.136719 Z M 18.390625 3.136719 L 20.003906 3.136719 L 27.710938 22.882812 L 27.710938 3.136719 L 29.324219 3.136719 L 29.324219 27.398438 L 27.710938 27.398438 L 19.96875 7.894531 L 19.96875 27.398438 L 18.355469 27.398438 Z M 35.1875 3.136719 L 36.800781 3.136719 L 36.800781 27.398438 L 35.1875 27.398438 Z M 41.050781 3.136719 L 42.761719 3.136719 L 46.648438 23.125 L 50.535156 3.136719 L 52.183594 3.136719 L 47.441406 27.578125 L 45.824219 27.578125 Z M 56.398438 3.136719 L 64.203125 3.136719 L 64.203125 5.664062 L 58.046875 5.664062 L 58.046875 13.730469 L 62.921875 13.730469 L 62.921875 16.261719 L 58.046875 16.261719 L 58.046875 24.871094 L 64.203125 24.871094 L 64.203125 27.398438 L 56.433594 27.398438 L 56.433594 3.136719 Z M 69.144531 3.136719 L 72.636719 3.136719 C 76.0625 3.136719 77.378906 6.328125 77.378906 9.699219 C 77.378906 13.191406 75.929688 15.417969 74.644531 16.5 L 78.664062 27.339844 L 76.753906 27.339844 L 72.933594 17.105469 L 70.792969 17.105469 L 70.792969 27.277344 L 69.179688 27.277344 L 69.179688 3.136719 Z M 72.867188 14.695312 C 74.152344 14.695312 75.601562 13.070312 75.601562 10.121094 C 75.601562 7.832031 74.746094 5.726562 72.308594 5.726562 L 70.757812 5.726562 L 70.757812 14.695312 Z M 82.386719 23.003906 C 82.386719 23.003906 83.933594 25.171875 85.84375 25.171875 C 87.292969 25.171875 88.480469 23.964844 88.480469 21.679688 C 88.480469 16.199219 82.1875 16.441406 82.1875 9.097656 C 82.1875 5.605469 83.738281 2.773438 86.503906 2.773438 C 88.25 2.773438 89.894531 3.859375 89.894531 3.859375 L 89.5 6.6875 C 89.5 6.6875 88.019531 5.425781 86.503906 5.425781 C 85.019531 5.425781 83.902344 6.566406 83.902344 8.734375 C 83.902344 14.335938 90.191406 13.730469 90.191406 21.4375 C 90.191406 25.652344 88.214844 27.878906 85.84375 27.878906 C 83.539062 27.878906 82.023438 25.894531 82.023438 25.894531 Z M 95.035156 3.136719 L 96.648438 3.136719 L 96.648438 27.398438 L 95.035156 27.398438 Z M 105.640625 5.664062 L 100.929688 5.664062 L 100.929688 3.136719 L 112.03125 3.136719 L 112.03125 5.664062 L 107.253906 5.664062 L 107.253906 27.398438 L 105.640625 27.398438 Z M 119.277344 16.863281 L 114.5 3.195312 L 116.410156 3.195312 L 120.066406 13.972656 L 123.753906 3.195312 L 125.566406 3.195312 L 120.824219 16.800781 L 120.824219 27.339844 L 119.210938 27.339844 Z M 5.839844 43.953125 L 0.175781 43.953125 L 0.175781 38.898438 L 14.734375 38.898438 L 14.734375 43.953125 L 9.132812 43.953125 L 9.132812 70.203125 L 5.839844 70.203125 Z M 23 38.597656 L 26.164062 38.597656 L 32.617188 70.082031 L 29.226562 70.082031 L 27.84375 63.039062 L 21.253906 63.039062 L 19.871094 70.140625 L 16.578125 70.140625 Z M 22.210938 58.101562 L 26.855469 58.101562 L 24.546875 46.300781 Z M 37.261719 62.738281 C 37.261719 62.738281 39.105469 65.566406 41.476562 65.507812 C 42.925781 65.507812 44.179688 64.363281 44.179688 62.195312 C 44.179688 56.597656 36.570312 56.777344 36.570312 47.324219 C 36.570312 42.507812 38.746094 38.414062 42.464844 38.414062 C 44.839844 38.414062 47.109375 39.859375 47.109375 39.859375 L 46.582031 45.277344 C 46.582031 45.277344 44.574219 43.652344 42.53125 43.652344 C 41.050781 43.652344 39.898438 44.738281 39.898438 46.722656 C 39.898438 52.382812 47.472656 51.902344 47.472656 61.714844 C 47.472656 67.371094 44.804688 70.746094 41.511719 70.746094 C 38.414062 70.746094 36.273438 68.09375 36.273438 68.09375 Z M 53.566406 38.835938 L 58.34375 38.835938 L 62.492188 60.570312 L 66.640625 38.835938 L 71.320312 38.835938 L 71.945312 70.140625 L 68.75 70.140625 L 68.257812 45.640625 L 63.480469 70.140625 L 61.304688 70.140625 L 56.597656 45.699219 L 56.167969 70.140625 L 52.972656 70.140625 Z M 82.816406 38.597656 L 85.976562 38.597656 L 92.433594 70.082031 L 89.074219 70.082031 L 87.6875 63.039062 L 81.035156 63.039062 L 79.652344 70.082031 L 76.359375 70.082031 Z M 82.023438 58.101562 L 86.667969 58.101562 L 84.363281 46.300781 Z M 97.273438 38.835938 L 100.601562 38.835938 L 108.933594 60.871094 L 108.933594 38.835938 L 112.160156 38.835938 L 112.160156 70.140625 L 108.800781 70.140625 L 100.5 48.226562 L 100.5 70.140625 L 97.273438 70.140625 Z M 118.980469 38.835938 L 122.304688 38.835938 L 122.304688 70.140625 L 118.980469 70.140625 Z M 133.605469 38.597656 L 136.765625 38.597656 L 143.222656 70.082031 L 139.863281 70.082031 L 138.480469 63.039062 L 131.859375 63.039062 L 130.476562 70.082031 L 127.117188 70.082031 Z M 132.78125 58.101562 L 137.425781 58.101562 L 135.117188 46.300781 Z M 133.042969 10 C 134.886719 10 135.8125 12.648438 135.8125 15.359375 C 135.8125 18.789062 134.296875 23.847656 131.726562 23.847656 C 129.882812 23.847656 128.960938 21.199219 128.960938 18.308594 C 129.027344 14.214844 130.738281 10 133.042969 10 Z M 131.859375 21.917969 C 133.503906 21.917969 134.558594 18.429688 134.558594 15.417969 C 134.558594 13.429688 134.097656 11.867188 133.011719 11.867188 C 131.527344 11.867188 130.277344 14.574219 130.277344 18.128906 C 130.308594 20.355469 130.769531 21.917969 131.859375 21.917969 Z M 137.292969 10.964844 L 138.414062 10.242188 L 138.480469 9.636719 C 138.742188 6.207031 139.5 2.292969 141.839844 2.292969 C 142.957031 2.292969 143.617188 3.078125 143.617188 3.078125 L 143.089844 4.882812 C 143.089844 4.882812 142.53125 4.28125 141.871094 4.28125 C 140.257812 4.28125 139.894531 7.289062 139.597656 10.480469 L 141.542969 10.480469 L 141.3125 12.289062 L 139.464844 12.289062 C 139.003906 19.390625 138.480469 28.964844 135.582031 30.527344 L 135.085938 28.964844 C 136.863281 27.878906 137.621094 22.101562 138.015625 16.742188 L 138.347656 12.347656 L 137.359375 12.347656 L 137.359375 11.023438 L 137.292969 11.023438 Z M 137.292969 10.964844 "/>
<path style=" stroke:none;fillRule:nonzero;fill:rgb(93.333333%,19.215686%,14.117647%);fill-opacity:1;" d="M 164.105469 9.398438 C 163.875 9.398438 163.378906 9.457031 163.082031 9.457031 C 162.886719 9.457031 162.753906 9.398438 162.488281 9.21875 C 162.390625 9.15625 162.324219 9.277344 162.292969 9.457031 L 162.257812 10.722656 C 162.257812 11.023438 162.390625 11.265625 162.554688 11.324219 C 163.082031 11.566406 163.742188 11.445312 164.597656 9.757812 C 164.761719 9.457031 164.300781 9.398438 164.105469 9.398438 "/>
<path style=" stroke:none;fillRule:nonzero;fill:rgb(93.333333%,19.215686%,14.117647%);fill-opacity:1;" d="M 197.796875 17.222656 C 197.832031 17.164062 197.832031 17.105469 197.796875 17.105469 C 196.316406 14.273438 189.792969 15.660156 187.292969 16.261719 C 184.164062 16.863281 181.59375 17.523438 180.804688 17.644531 C 179.945312 17.707031 178.234375 17.945312 177.246094 17.042969 C 176.125 16.019531 175.761719 15.238281 175.699219 14.214844 C 175.433594 11.203125 176.882812 11.144531 177.3125 11.144531 C 177.738281 11.144531 178.398438 11.144531 178.367188 12.289062 C 178.332031 13.070312 177.96875 13.429688 177.574219 13.792969 C 177.542969 13.792969 177.542969 13.914062 177.574219 13.914062 C 177.804688 14.273438 178.597656 15.417969 179.519531 15.296875 C 180.574219 15.175781 181.296875 14.753906 181.792969 11.566406 C 181.792969 11.503906 181.824219 11.503906 181.855469 11.503906 C 182.1875 11.746094 184.226562 13.191406 185.445312 13.613281 C 186.433594 14.035156 187.882812 14.09375 188.90625 13.011719 C 189.925781 11.925781 191.375 10.300781 193.023438 10.480469 C 194.472656 10.601562 196.117188 10.660156 197.105469 11.683594 C 197.140625 11.746094 197.171875 11.683594 197.171875 11.566406 C 196.976562 10.359375 195.65625 3.738281 191.277344 5.542969 C 190.191406 6.148438 190.027344 6.566406 189.136719 6.867188 C 188.113281 7.230469 186.535156 7.410156 184.394531 6.449219 C 184.359375 6.449219 184.328125 6.328125 184.394531 6.265625 C 184.953125 5.664062 187.882812 2.957031 191.113281 3.980469 C 191.144531 3.980469 191.179688 3.917969 191.144531 3.859375 C 190.816406 3.136719 189.398438 -0.175781 186.960938 0.0078125 C 184.164062 0.1875 183.535156 1.332031 181.824219 2.957031 C 180.210938 4.519531 179.550781 5.542969 176.816406 5.242188 C 175.136719 5.0625 173.292969 7.53125 172.929688 9.457031 C 171.316406 17.945312 174.777344 21.316406 177.804688 22.222656 C 180.636719 23.003906 190.421875 19.332031 192.726562 21.316406 C 193.78125 22.160156 194.40625 24.027344 194.339844 25.53125 C 194.308594 26.253906 193.878906 27.519531 192.527344 28.058594 C 191.144531 28.664062 188.214844 28.84375 185.644531 27.699219 C 185.578125 27.640625 183.273438 25.230469 181.429688 25.050781 C 180.078125 24.871094 176.621094 26.253906 175.566406 26.316406 C 174.808594 26.316406 173.328125 26.496094 172.570312 26.617188 C 172.601562 20.175781 170.691406 14.9375 170.59375 14.636719 C 170.460938 14.273438 170.230469 14.152344 170.03125 14.394531 C 170.03125 14.394531 169.769531 14.636719 169.308594 14.996094 C 169.800781 13.191406 169.671875 10.84375 169.210938 9.878906 C 169.175781 9.820312 169.175781 9.757812 169.210938 9.699219 C 169.339844 9.457031 169.605469 8.554688 169.636719 7.710938 C 169.671875 6.207031 169.503906 4.339844 167.5625 2.355469 C 167.429688 2.234375 167.265625 2.355469 167.234375 2.59375 C 167.066406 3.316406 166.738281 4.640625 166.375 4.703125 C 165.652344 4.820312 163.445312 5.664062 162.886719 6.265625 C 162.324219 6.808594 161.667969 7.652344 161.304688 8.613281 C 160.976562 9.578125 160.546875 10.058594 159.988281 10.300781 C 159.425781 10.542969 159.195312 10.300781 159 10.660156 C 158.832031 11.023438 158.703125 11.265625 158.769531 11.925781 C 158.800781 12.40625 159.261719 14.152344 159.527344 14.996094 C 159.722656 15.597656 159.988281 16.320312 160.316406 16.683594 L 159.558594 16.683594 C 159.328125 16.683594 158.898438 16.621094 158.898438 16.621094 C 158.800781 16.621094 158.703125 16.683594 158.667969 16.863281 C 158.636719 17.042969 158.636719 17.222656 158.703125 17.34375 C 158.933594 17.824219 159.164062 18.308594 160.050781 18.308594 C 160.085938 18.308594 160.117188 18.308594 160.152344 18.308594 L 160.84375 18.308594 C 160.746094 18.546875 160.613281 18.789062 160.546875 18.910156 C 160.480469 19.089844 159.988281 19.992188 160.316406 21.4375 C 160.613281 22.582031 161.007812 23.003906 161.007812 23.003906 C 161.5 22.402344 162.621094 21.4375 163.050781 22.101562 C 162.949219 22.28125 162.886719 22.460938 162.785156 22.640625 C 161.863281 24.449219 160.644531 26.796875 159.988281 29.625 C 159.128906 29.023438 157.089844 27.640625 156.164062 25.894531 C 155.871094 25.351562 155.605469 23.964844 155.804688 22.882812 C 155.96875 21.980469 156.101562 21.015625 155.703125 19.511719 C 155.375 18.128906 154.355469 16.742188 154.355469 16.742188 C 154.484375 15.058594 154.683594 12.828125 154.714844 12.226562 C 155.574219 12.40625 156.363281 11.988281 156.660156 11.265625 C 156.957031 10.542969 156.988281 9.035156 157.152344 8.675781 C 157.285156 8.3125 157.582031 8.433594 157.746094 8.433594 C 158.109375 8.375 158.601562 8.375 159.0625 7.589844 C 159.558594 6.75 159.953125 5.542969 160.382812 5.425781 C 161.007812 5.242188 161.371094 4.882812 161.667969 4.460938 C 162.027344 3.859375 162.820312 2.113281 164.269531 2.171875 C 164.664062 2.171875 164.894531 1.449219 164.136719 1.148438 C 163.148438 0.726562 161.996094 1.089844 161.402344 1.570312 C 160.578125 2.171875 160.25 1.632812 159.886719 1.449219 C 159.359375 1.148438 158.832031 1.210938 158.042969 1.8125 C 157.382812 2.292969 156.230469 2.535156 155.539062 2.171875 C 154.550781 1.570312 153.761719 1.332031 152.511719 1.871094 C 151.421875 2.355469 150.664062 3.496094 150.269531 5.125 C 149.941406 6.6875 150.203125 7.894531 150.269531 8.132812 C 150.335938 8.433594 150.5 8.855469 150.566406 8.976562 C 150.535156 10.300781 150.433594 14.636719 150.433594 15.175781 C 150.269531 15.597656 150.203125 16.082031 150.203125 16.320312 C 150.171875 16.5625 150.171875 16.742188 150.171875 16.921875 C 150.136719 16.921875 150.074219 16.921875 150.039062 16.921875 C 149.777344 16.984375 149.511719 17.164062 149.316406 17.523438 L 149.25 17.707031 L 149.183594 17.886719 C 149.148438 18.007812 149.085938 18.128906 149.050781 18.246094 L 148.953125 18.609375 C 148.917969 18.730469 148.917969 18.910156 148.886719 19.089844 C 148.855469 19.390625 148.855469 19.691406 148.886719 19.992188 C 148.917969 20.292969 148.984375 20.59375 149.085938 20.777344 C 149.214844 21.199219 149.378906 21.378906 149.511719 21.617188 C 149.445312 21.738281 149.378906 21.917969 149.316406 22.039062 C 149.183594 22.402344 149.117188 22.703125 149.085938 23.246094 C 149.050781 23.785156 149.148438 24.207031 149.28125 24.570312 C 149.414062 24.929688 149.546875 25.171875 149.675781 25.351562 C 149.808594 25.53125 150.007812 25.773438 150.105469 25.953125 C 149.777344 43.894531 149.742188 44.554688 150.730469 45.15625 C 150.765625 45.15625 150.828125 45.15625 150.863281 45.15625 C 152.046875 45.15625 152.378906 40.34375 153.070312 31.972656 C 153.167969 30.769531 153.234375 29.6875 153.332031 28.78125 C 154.191406 31.671875 156.101562 37.632812 158.867188 42.269531 C 159.03125 42.507812 159.230469 42.390625 159.296875 41.96875 C 159.625 39.621094 159.820312 38.835938 159.953125 38.414062 C 160.152344 39.136719 160.449219 40.160156 160.710938 40.824219 C 161.074219 41.785156 161.566406 42.75 162.128906 43.714844 C 161.269531 45.21875 159.195312 48.589844 157.054688 49.792969 C 157.023438 49.792969 157.023438 49.792969 156.988281 49.734375 C 156.921875 49.371094 156.5625 47.925781 156.066406 47.085938 C 155.539062 46.242188 155.078125 45.277344 153.136719 46.0625 C 153.136719 46.0625 152.609375 46.300781 152.015625 46.722656 C 151.753906 46.902344 151.816406 47.566406 152.082031 47.566406 C 152.34375 47.566406 152.542969 47.625 152.640625 47.6875 C 152.675781 47.6875 152.675781 47.746094 152.675781 47.746094 C 152.640625 47.988281 152.609375 48.648438 152.839844 49.3125 C 152.839844 49.371094 152.839844 49.371094 152.839844 49.433594 C 152.609375 49.734375 151.226562 51.71875 151.488281 55.875 C 151.523438 56.175781 151.71875 56.234375 151.785156 55.933594 C 151.882812 55.332031 152.015625 54.730469 152.015625 54.789062 C 152.148438 55.152344 152.640625 56.65625 153.433594 56.898438 C 153.464844 56.898438 153.464844 56.957031 153.464844 56.957031 C 153.433594 57.441406 153.300781 59.789062 154.289062 62.015625 C 154.421875 62.316406 154.617188 62.136719 154.617188 61.714844 C 154.617188 61.351562 154.585938 61.113281 154.617188 60.8125 C 154.617188 60.75 154.652344 60.691406 154.683594 60.75 C 154.847656 60.992188 155.210938 61.230469 155.703125 60.628906 C 156.164062 60.089844 156.726562 59.003906 157.1875 57.679688 C 157.1875 57.621094 157.253906 57.621094 157.253906 57.679688 C 157.613281 58.523438 158.207031 58.582031 158.867188 58.582031 C 159.953125 58.582031 160.875 57.5 160.875 55.574219 C 160.875 55.511719 160.875 55.453125 160.875 55.453125 C 163.347656 55.933594 164.863281 54.851562 166.738281 52.625 C 168.484375 50.636719 169.375 49.191406 169.242188 47.324219 C 169.175781 46.542969 168.976562 45.578125 168.683594 45.097656 C 171.679688 44.976562 173.261719 41.246094 173.820312 39.621094 C 173.851562 39.558594 173.917969 39.621094 173.886719 39.679688 C 173.6875 41.246094 173.65625 44.132812 174.148438 45.699219 C 174.839844 47.988281 176.457031 51.480469 176.71875 52.925781 C 176.980469 54.367188 176.949219 58.042969 176.058594 60.027344 C 175.171875 62.015625 174.972656 62.375 174.3125 63.039062 L 174.28125 63.039062 C 174.117188 62.738281 172.929688 60.929688 171.777344 60.570312 C 170.59375 60.207031 166.871094 58.703125 166.671875 66.109375 C 166.671875 66.46875 166.902344 66.652344 167.003906 66.410156 C 167.265625 65.808594 167.59375 65.144531 167.824219 64.964844 L 167.859375 64.964844 C 167.957031 65.023438 168.386719 65.507812 168.582031 65.566406 C 168.617188 65.566406 168.617188 65.628906 168.617188 65.6875 C 167.992188 67.191406 167.398438 69.601562 168.582031 72.1875 C 168.683594 72.429688 168.914062 72.25 168.878906 71.949219 C 168.847656 71.527344 168.847656 71.046875 168.878906 70.5625 C 168.878906 70.503906 168.945312 70.441406 168.945312 70.503906 C 169.375 71.648438 170.363281 72.070312 171.285156 71.285156 C 171.316406 71.285156 171.351562 71.285156 171.351562 71.347656 C 171.382812 71.828125 171.644531 73.753906 173.226562 75.921875 C 173.390625 76.164062 173.589844 75.800781 173.558594 75.441406 C 173.457031 74.839844 173.328125 74.296875 173.359375 73.933594 C 173.359375 73.875 173.390625 73.875 173.390625 73.875 C 174.019531 73.875 174.941406 73.273438 175.335938 71.707031 C 175.664062 70.261719 175.828125 68.878906 175.863281 68.699219 C 175.863281 68.699219 175.863281 68.636719 175.894531 68.636719 L 177.3125 66.953125 C 177.34375 66.953125 177.378906 66.953125 177.378906 67.011719 C 177.476562 67.492188 177.609375 68.035156 177.839844 68.15625 C 177.871094 68.15625 177.871094 68.214844 177.871094 68.277344 C 177.839844 68.515625 177.707031 69.359375 177.542969 70.082031 C 177.476562 70.324219 177.640625 70.5625 177.773438 70.441406 C 178.695312 69.238281 180.539062 66.109375 179.683594 62.738281 C 182.648438 58.464844 184.523438 53.164062 184.789062 49.972656 C 184.820312 49.492188 184.625 49.132812 184.425781 49.132812 C 182.515625 49.011719 181.496094 48.109375 181.625 44.917969 C 181.625 44.855469 181.660156 44.855469 181.691406 44.855469 C 182.152344 45.097656 186.46875 47.203125 189.332031 45.640625 C 189.53125 45.519531 189.664062 45.699219 189.761719 46.0625 C 190.089844 47.144531 190.75 49.554688 190.882812 50.996094 C 191.144531 52.804688 190.949219 53.765625 190.914062 53.828125 C 190.75 54.25 190.453125 54.671875 189.628906 55.632812 C 187.589844 58.042969 187.785156 61.113281 189.664062 64.605469 C 189.761719 64.785156 189.925781 64.605469 189.894531 64.363281 C 189.792969 63.640625 189.628906 62.617188 189.628906 62.253906 C 189.628906 62.195312 189.664062 62.195312 189.695312 62.195312 C 189.992188 62.316406 190.191406 62.136719 190.355469 62.015625 C 190.386719 62.015625 190.421875 62.015625 190.421875 62.074219 C 190.453125 62.558594 190.683594 64.363281 192.101562 65.566406 C 192.167969 65.628906 192.265625 65.507812 192.230469 65.324219 C 192.101562 64.785156 191.902344 63.820312 191.902344 63.460938 C 191.902344 63.398438 191.9375 63.339844 191.9375 63.339844 C 192.265625 63.339844 193.417969 63.339844 193.648438 60.511719 C 193.648438 60.449219 193.679688 60.449219 193.714844 60.449219 C 194.011719 60.628906 195.527344 61.535156 196.480469 59.304688 C 196.515625 59.183594 196.480469 59.003906 196.414062 59.066406 C 196.152344 59.183594 195.722656 59.367188 195.492188 59.183594 C 195.460938 59.183594 195.460938 59.125 195.460938 59.066406 C 195.625 58.582031 196.347656 55.933594 194.539062 53.042969 C 194.539062 53.042969 194.503906 52.984375 194.539062 52.925781 C 195.691406 46.421875 195.460938 39.199219 194.175781 34.863281 C 194.078125 34.503906 193.847656 34.320312 193.679688 34.441406 C 191.441406 35.945312 187.820312 36.488281 187.359375 32.875 C 187.359375 32.816406 187.390625 32.757812 187.421875 32.757812 C 187.753906 32.816406 189.070312 33.296875 190.519531 32.996094 C 191.410156 32.816406 192.726562 32.574219 194.042969 31.851562 C 195.359375 31.132812 196.414062 30.167969 196.941406 27.699219 C 197.273438 25.953125 197.273438 22.402344 196.21875 19.871094 C 196.21875 19.8125 196.21875 19.8125 196.21875 19.753906 Z M 151.753906 10.359375 C 152.476562 11.203125 153.265625 11.566406 153.925781 11.867188 C 153.925781 11.867188 153.664062 15.597656 153.628906 15.597656 C 153.53125 15.476562 153.398438 15.359375 153.300781 15.296875 C 153.003906 14.996094 152.742188 14.753906 152.445312 14.574219 C 152.28125 14.453125 152.113281 14.335938 151.949219 14.273438 C 151.851562 14.214844 151.753906 14.214844 151.621094 14.214844 Z M 151.390625 5.84375 C 151.652344 3.859375 152.707031 3.378906 153.101562 3.136719 C 154.023438 2.65625 154.882812 2.835938 155.640625 3.378906 C 156.394531 3.917969 157.550781 3.496094 158.140625 3.078125 C 158.769531 2.59375 159.230469 2.414062 159.558594 2.59375 C 159.988281 2.894531 160.347656 2.957031 160.578125 2.957031 C 161.039062 2.957031 161.730469 2.535156 161.796875 2.535156 C 161.796875 2.535156 161.039062 3.679688 160.546875 3.679688 C 159.789062 3.617188 159.261719 5.0625 159.03125 5.785156 C 158.800781 6.507812 158.40625 6.988281 157.484375 7.050781 C 156.296875 7.109375 156.230469 8.855469 156.101562 9.578125 C 156 10.300781 155.605469 10.722656 154.75 10.542969 C 153.367188 10.179688 152.90625 9.757812 152.3125 9.21875 C 151.585938 8.496094 151.226562 7.171875 151.390625 5.84375 M 149.90625 18.847656 C 150.105469 17.824219 150.796875 18.128906 151.191406 18.246094 C 151.292969 18.308594 151.355469 18.128906 151.324219 17.945312 C 151.191406 17.464844 151.09375 16.742188 151.257812 16.261719 C 151.554688 15.476562 152.410156 16.320312 152.839844 16.683594 C 153.234375 17.042969 154.15625 17.945312 153.925781 18.910156 C 153.828125 19.511719 153.53125 19.691406 153.300781 19.691406 C 153.203125 19.691406 153.167969 19.933594 153.234375 20.054688 C 153.464844 20.535156 153.792969 21.316406 153.628906 22.039062 C 153.464844 22.761719 152.871094 22.640625 152.542969 22.640625 C 152.445312 22.640625 152.378906 22.882812 152.445312 23.003906 C 152.675781 23.484375 152.9375 24.207031 152.804688 24.871094 C 152.640625 26.011719 151.6875 25.230469 151.191406 24.808594 C 150.699219 24.386719 150.074219 23.605469 150.171875 22.824219 C 150.238281 22.28125 150.597656 21.980469 150.863281 21.800781 C 150.960938 21.738281 150.960938 21.5 150.894531 21.378906 C 150.535156 20.894531 149.777344 19.8125 149.90625 18.847656 M 151.191406 42.75 C 150.996094 42.75 151.027344 40.28125 151.09375 36.429688 C 151.160156 32.335938 151.324219 27.578125 151.355469 26.554688 C 151.585938 26.734375 151.785156 26.855469 152.082031 26.976562 C 152.246094 27.035156 152.410156 27.097656 152.609375 27.097656 C 152.675781 27.097656 152.640625 27.097656 152.707031 27.097656 C 152.574219 28.179688 152.476562 29.6875 152.378906 31.371094 C 152.28125 32.636719 152.082031 34.621094 151.949219 36.550781 C 151.6875 39.738281 151.324219 42.75 151.191406 42.75 M 161.535156 39.621094 C 161.207031 38.714844 160.941406 37.8125 160.746094 36.910156 C 160.679688 36.550781 160.613281 36.066406 160.511719 35.585938 C 160.480469 35.40625 160.382812 35.34375 160.316406 35.464844 C 160.019531 36.007812 159.820312 36.488281 159.589844 37.273438 C 159.589844 37.332031 159.558594 37.332031 159.558594 37.390625 C 159.328125 38.113281 159.195312 38.957031 159.03125 39.859375 C 158.667969 39.257812 158.207031 38.476562 157.8125 37.632812 C 157.8125 37.511719 157.847656 37.390625 157.847656 37.273438 C 157.878906 37.03125 157.878906 36.789062 157.910156 36.609375 C 157.976562 36.128906 158.042969 35.707031 158.109375 35.226562 C 158.140625 35.105469 158.109375 34.984375 158.078125 34.921875 C 158.011719 34.804688 157.910156 34.804688 157.878906 34.921875 C 157.679688 35.285156 157.550781 35.707031 157.382812 36.128906 C 157.351562 36.25 157.320312 36.367188 157.285156 36.429688 C 157.054688 35.886719 156.859375 35.34375 156.628906 34.742188 C 156.628906 34.621094 156.628906 34.5625 156.660156 34.441406 C 156.660156 34.203125 156.691406 34.019531 156.726562 33.839844 C 156.757812 33.359375 156.824219 32.996094 156.921875 32.515625 C 156.921875 32.394531 156.921875 32.335938 156.890625 32.214844 C 156.824219 32.09375 156.726562 32.09375 156.691406 32.214844 C 156.496094 32.574219 156.363281 32.875 156.199219 33.359375 C 156.199219 33.359375 156.164062 33.417969 156.164062 33.480469 C 154.945312 30.226562 153.894531 26.855469 153.597656 25.832031 C 153.628906 25.710938 153.628906 25.652344 153.664062 25.53125 C 153.730469 25.050781 153.730469 24.6875 153.628906 24.269531 C 153.628906 24.207031 153.597656 24.207031 153.597656 24.148438 C 153.664062 24.148438 153.730469 24.085938 153.828125 24.085938 C 154.023438 23.964844 154.15625 23.726562 154.289062 23.484375 C 154.421875 23.183594 154.484375 22.882812 154.519531 22.582031 C 154.550781 22.222656 154.585938 21.859375 154.519531 21.5 C 154.484375 21.136719 154.386719 20.894531 154.289062 20.714844 C 154.484375 20.476562 154.617188 20.175781 154.683594 19.871094 C 154.714844 19.753906 154.75 19.691406 154.75 19.570312 C 154.78125 19.511719 154.78125 19.390625 154.816406 19.269531 C 154.980469 19.511719 155.113281 19.753906 155.179688 20.175781 C 155.507812 21.378906 155.113281 23.246094 155.078125 24.027344 C 155.011719 24.75 155.210938 25.832031 155.472656 26.496094 C 155.769531 27.15625 158.140625 29.6875 160.382812 31.433594 L 160.710938 31.734375 C 161.207031 28.542969 162.589844 25.832031 163.609375 23.90625 C 163.839844 23.425781 164.039062 23.003906 164.234375 22.582031 L 164.464844 22.039062 L 164.136719 21.4375 C 163.742188 20.59375 163.214844 20.355469 162.949219 20.355469 C 162.457031 20.355469 161.5 21.015625 161.5 21.015625 C 161.039062 20.113281 161.765625 18.96875 162.0625 18.367188 C 162.457031 18.367188 163.015625 18.308594 163.214844 18.246094 C 163.3125 18.246094 163.445312 18.246094 163.542969 18.1875 C 163.675781 18.1875 163.773438 17.886719 163.707031 17.644531 C 163.578125 17.222656 163.414062 16.683594 163.28125 16.382812 C 163.050781 15.839844 162.488281 16.320312 161.601562 16.140625 C 160.28125 15.839844 159.789062 11.867188 159.789062 11.867188 C 160.117188 11.988281 160.777344 11.804688 161.335938 11.144531 C 161.898438 10.542969 162.160156 9.035156 162.851562 8.195312 C 163.511719 7.351562 165.058594 7.109375 166.179688 6.929688 C 167.234375 6.808594 167.496094 5.484375 167.761719 4.582031 C 167.792969 4.460938 167.859375 4.402344 167.925781 4.460938 C 169.273438 6.085938 169.042969 8.132812 168.714844 9.035156 C 168.648438 9.21875 168.515625 9.519531 168.417969 9.699219 C 168.386719 9.757812 168.386719 9.878906 168.453125 9.941406 C 168.683594 10.179688 168.78125 10.421875 168.914062 11.082031 C 169.144531 12.226562 169.042969 13.492188 168.8125 14.214844 C 168.515625 15.238281 167.992188 15.660156 167.527344 16.019531 C 167.464844 16.082031 167.332031 16.140625 167.199219 16.261719 C 166.871094 16.5625 166.9375 17.464844 167.296875 17.464844 C 167.496094 17.464844 167.5625 17.523438 167.628906 17.464844 C 168.78125 17.523438 169.671875 16.800781 170.195312 16.261719 C 170.527344 17.464844 171.285156 20.175781 171.644531 23.425781 C 171.515625 23.183594 171.351562 22.941406 171.25 22.824219 C 170.921875 22.402344 170.59375 22.101562 170.261719 21.800781 C 169.933594 21.558594 169.539062 21.316406 169.210938 21.257812 C 169.109375 21.257812 169.011719 21.316406 168.945312 21.558594 C 168.878906 21.800781 168.945312 22.039062 169.078125 22.160156 C 169.40625 22.402344 169.703125 22.703125 170 23.003906 C 170.296875 23.304688 170.558594 23.664062 170.824219 24.027344 C 171.085938 24.449219 171.285156 24.871094 171.480469 25.351562 C 171.582031 25.59375 171.679688 25.894531 171.777344 26.074219 L 171.910156 26.496094 C 171.910156 26.496094 171.910156 26.496094 171.910156 26.554688 C 171.910156 28.242188 171.777344 29.988281 171.414062 31.792969 C 171.382812 31.914062 171.382812 31.972656 171.351562 32.09375 C 171.316406 31.914062 171.285156 31.734375 171.25 31.550781 C 171.085938 30.769531 170.890625 29.925781 170.59375 29.265625 C 170.296875 28.601562 169.964844 27.941406 169.570312 27.457031 C 169.175781 26.976562 168.746094 26.734375 168.320312 26.554688 C 168.222656 26.496094 168.089844 26.617188 168.054688 26.855469 C 167.992188 27.097656 168.054688 27.339844 168.1875 27.457031 C 168.550781 27.757812 168.914062 28.121094 169.210938 28.601562 C 169.503906 29.082031 169.769531 29.566406 170 30.226562 C 170.230469 30.828125 170.363281 31.550781 170.492188 32.214844 C 170.558594 32.574219 170.625 32.9375 170.691406 33.296875 C 170.722656 33.480469 170.757812 33.660156 170.757812 33.898438 C 170.757812 33.960938 170.789062 34.082031 170.824219 34.140625 C 170.429688 35.226562 169.902344 36.429688 169.273438 37.574219 C 169.273438 37.390625 169.242188 37.273438 169.242188 37.089844 C 169.210938 36.851562 169.210938 36.609375 169.175781 36.429688 C 169.042969 35.527344 168.878906 34.621094 168.648438 33.71875 C 168.386719 32.875 168.089844 32.09375 167.660156 31.492188 C 167.296875 30.890625 166.835938 30.410156 166.375 30.105469 C 166.277344 30.046875 166.144531 30.105469 166.078125 30.289062 C 166.015625 30.527344 166.046875 30.769531 166.179688 30.890625 C 166.542969 31.371094 166.9375 31.792969 167.199219 32.457031 C 167.496094 33.058594 167.726562 33.71875 167.925781 34.441406 C 168.121094 35.164062 168.253906 36.007812 168.320312 36.789062 C 168.351562 37.03125 168.351562 37.210938 168.386719 37.390625 C 168.417969 37.632812 168.417969 37.8125 168.417969 37.992188 C 168.417969 38.234375 168.453125 38.414062 168.453125 38.597656 C 168.453125 38.65625 168.484375 38.777344 168.484375 38.835938 C 167.992188 39.621094 167.464844 40.460938 166.871094 41.183594 C 166.835938 41.183594 166.804688 41.125 166.773438 41.0625 C 166.671875 40.945312 166.574219 40.824219 166.476562 40.703125 C 166.375 40.582031 166.277344 40.460938 166.179688 40.34375 C 166.078125 40.222656 165.980469 40.101562 165.914062 39.921875 C 165.585938 39.378906 165.257812 38.835938 164.992188 38.175781 C 164.730469 37.574219 164.53125 36.851562 164.398438 36.066406 C 164.269531 35.34375 164.203125 34.441406 164.203125 33.597656 C 164.203125 33.359375 164.136719 33.179688 164.003906 33.179688 C 163.875 33.117188 163.742188 33.296875 163.707031 33.539062 C 163.609375 34.441406 163.609375 35.40625 163.675781 36.429688 C 163.773438 37.390625 163.972656 38.296875 164.234375 39.199219 C 164.53125 40.039062 164.828125 40.761719 165.222656 41.425781 C 165.324219 41.605469 165.421875 41.785156 165.519531 41.90625 C 165.617188 42.027344 165.683594 42.207031 165.785156 42.328125 C 165.125 42.992188 164.464844 43.59375 163.773438 43.953125 L 163.675781 43.773438 C 163.414062 43.351562 163.179688 43.050781 162.949219 42.628906 C 162.359375 41.484375 161.898438 40.523438 161.535156 39.621094 M 183.800781 50.457031 C 183.472656 52.019531 183.042969 53.40625 182.582031 54.730469 C 182.449219 54.308594 182.285156 54.007812 182.152344 53.707031 C 181.988281 53.40625 181.824219 53.105469 181.660156 52.925781 C 181.460938 52.683594 181.328125 52.441406 181.097656 52.320312 C 181 52.261719 180.902344 52.261719 180.835938 52.441406 C 180.769531 52.625 180.769531 52.925781 180.867188 53.042969 C 181 53.285156 181.164062 53.527344 181.265625 53.765625 C 181.394531 54.066406 181.527344 54.367188 181.59375 54.609375 C 181.691406 54.910156 181.792969 55.210938 181.824219 55.511719 C 181.890625 55.8125 181.921875 56.113281 181.921875 56.417969 C 181.625 57.019531 181.328125 57.679688 181.035156 58.28125 C 181 58.222656 181 58.101562 180.96875 58.042969 C 180.835938 57.621094 180.703125 57.320312 180.574219 56.957031 C 180.40625 56.597656 180.242188 56.355469 180.078125 56.113281 C 179.878906 55.875 179.75 55.632812 179.519531 55.453125 C 179.417969 55.394531 179.320312 55.394531 179.253906 55.574219 C 179.15625 55.753906 179.1875 56.054688 179.289062 56.175781 C 179.417969 56.417969 179.585938 56.71875 179.648438 56.957031 C 179.78125 57.257812 179.878906 57.558594 179.980469 57.800781 C 180.078125 58.101562 180.144531 58.402344 180.175781 58.703125 C 180.210938 59.003906 180.242188 59.304688 180.242188 59.605469 C 180.242188 59.667969 180.242188 59.667969 180.242188 59.726562 C 179.78125 60.570312 179.253906 61.351562 178.859375 61.953125 C 178.859375 61.953125 178.828125 62.015625 178.859375 62.074219 C 179.453125 65.085938 178.464844 67.914062 177.90625 65.144531 C 177.773438 64.542969 177.675781 64.605469 177.445312 64.964844 C 177.210938 65.265625 175.335938 67.675781 175.136719 67.914062 L 175.105469 67.976562 C 175.335938 70.261719 174.117188 72.25 173.292969 72.128906 C 172.601562 72.007812 172.273438 70.503906 172.4375 68.515625 C 172.46875 68.214844 172.304688 68.035156 172.171875 68.214844 C 171.449219 69.300781 170.132812 70.746094 169.273438 68.515625 C 168.878906 67.492188 169.636719 65.6875 170.066406 64.90625 C 170.164062 64.722656 170.097656 64.363281 169.964844 64.300781 C 169.308594 64.121094 168.023438 63.640625 168.550781 62.4375 C 169.011719 61.351562 169.964844 61.535156 170.625 61.59375 C 171.382812 61.714844 172.964844 62.136719 174.28125 64.785156 C 174.28125 64.785156 174.3125 64.84375 174.347656 64.785156 C 174.578125 64.542969 175.796875 63.160156 176.324219 62.015625 C 176.917969 60.75 177.839844 59.789062 177.90625 53.828125 C 177.9375 50.996094 176.554688 48.710938 175.730469 46.484375 C 174.90625 44.316406 174.445312 42.390625 175.039062 38.777344 C 175.039062 38.714844 175.070312 38.714844 175.070312 38.714844 C 175.171875 38.714844 175.597656 38.65625 176.882812 38.65625 L 176.917969 38.65625 C 177.082031 39.015625 178.5625 42.148438 180.636719 43.714844 C 180.671875 43.714844 180.671875 43.773438 180.671875 43.773438 C 180.636719 44.617188 180.40625 50.457031 183.800781 50.457031 M 187.523438 36.25 C 188.839844 37.8125 191.277344 37.574219 193.648438 36.308594 C 193.679688 36.308594 193.679688 36.308594 193.714844 36.367188 C 194.042969 37.753906 194.273438 39.136719 194.4375 40.582031 C 194.207031 40.34375 193.976562 40.101562 193.746094 39.980469 C 193.484375 39.800781 193.253906 39.621094 192.988281 39.558594 C 192.726562 39.4375 192.496094 39.378906 192.199219 39.378906 C 192.132812 39.378906 192.066406 39.4375 192.066406 39.558594 C 192.035156 39.679688 192.101562 39.859375 192.167969 39.921875 C 192.398438 40.039062 192.628906 40.222656 192.859375 40.402344 C 193.089844 40.582031 193.285156 40.824219 193.484375 41.003906 C 193.679688 41.246094 193.878906 41.546875 194.042969 41.785156 C 194.242188 42.085938 194.375 42.390625 194.570312 42.628906 C 194.605469 43.472656 194.636719 44.375 194.605469 45.21875 C 194.539062 45.15625 194.472656 45.097656 194.40625 44.976562 C 194.175781 44.738281 193.945312 44.496094 193.679688 44.375 C 193.417969 44.195312 193.1875 44.015625 192.925781 43.894531 C 192.660156 43.773438 192.429688 43.714844 192.132812 43.714844 C 192.066406 43.714844 192 43.773438 192 43.894531 C 191.96875 44.015625 192.035156 44.195312 192.101562 44.253906 C 192.332031 44.375 192.5625 44.554688 192.792969 44.738281 C 193.023438 44.917969 193.21875 45.15625 193.417969 45.339844 C 193.617188 45.578125 193.8125 45.878906 193.976562 46.121094 C 194.175781 46.421875 194.308594 46.722656 194.472656 46.902344 C 194.339844 48.769531 194.109375 50.757812 193.746094 52.742188 C 193.714844 52.925781 193.679688 53.105469 193.617188 53.285156 C 195.097656 54.730469 195.425781 58.464844 194.308594 58.824219 C 193.976562 58.945312 193.617188 58.765625 193.386719 58.464844 C 193.285156 58.34375 193.1875 58.402344 193.15625 58.644531 C 193.023438 59.726562 192.628906 61.773438 191.804688 61.773438 C 191.144531 61.773438 190.914062 60.8125 190.914062 59.90625 C 190.914062 59.605469 190.71875 59.488281 190.617188 59.726562 C 190.222656 60.628906 189.792969 60.992188 189.464844 60.570312 C 189.039062 59.96875 188.9375 59.125 189.136719 58.523438 C 189.628906 56.65625 191.078125 55.933594 191.671875 54.488281 C 192.398438 52.140625 191.210938 47.386719 190.320312 44.015625 C 190.222656 43.652344 189.992188 43.472656 189.828125 43.59375 C 189.003906 44.074219 186.863281 44.917969 184.226562 44.015625 C 180.671875 42.75 178.726562 40.34375 177.574219 37.574219 C 177.574219 37.574219 177.574219 37.511719 177.542969 37.511719 C 177.476562 37.332031 177.378906 37.152344 177.3125 36.910156 C 176.980469 36.128906 176.816406 35.464844 176.621094 34.984375 C 176.585938 34.863281 176.519531 34.804688 176.488281 34.804688 C 176.160156 34.683594 176.324219 36.488281 176.390625 36.910156 C 176.390625 36.96875 176.390625 36.96875 176.355469 37.03125 C 175.632812 37.332031 174.808594 37.089844 173.886719 37.152344 C 173.886719 37.152344 173.851562 37.152344 173.851562 37.210938 C 172.503906 40.28125 172.074219 42.507812 168.253906 43.714844 C 167.726562 43.894531 167.761719 44.496094 167.992188 44.855469 C 168.222656 45.15625 168.515625 46.0625 168.617188 47.265625 C 168.648438 47.808594 168.417969 48.46875 167.234375 49.972656 C 167.199219 49.855469 167.167969 49.734375 167.132812 49.554688 C 167.003906 49.132812 166.871094 48.769531 166.738281 48.46875 C 166.574219 48.109375 166.410156 47.867188 166.246094 47.625 C 166.046875 47.386719 165.882812 47.144531 165.652344 47.023438 C 165.554688 46.964844 165.453125 47.023438 165.386719 47.144531 C 165.324219 47.324219 165.324219 47.625 165.421875 47.746094 L 165.453125 47.746094 C 165.585938 47.925781 165.75 48.226562 165.847656 48.410156 C 165.980469 48.710938 166.078125 49.011719 166.179688 49.25 C 166.277344 49.554688 166.34375 49.855469 166.375 50.15625 C 166.410156 50.394531 166.410156 50.695312 166.410156 50.878906 C 165.914062 51.480469 165.421875 51.960938 164.992188 52.320312 C 164.960938 52.082031 164.925781 51.902344 164.894531 51.71875 C 164.796875 51.296875 164.664062 50.9375 164.566406 50.515625 C 164.433594 50.15625 164.234375 49.855469 164.105469 49.613281 C 163.90625 49.3125 163.773438 49.070312 163.542969 48.949219 C 163.445312 48.890625 163.347656 48.890625 163.28125 49.070312 C 163.214844 49.25 163.214844 49.554688 163.3125 49.671875 L 163.347656 49.734375 C 163.476562 49.972656 163.609375 50.273438 163.707031 50.457031 C 163.808594 50.757812 163.90625 51.058594 164.003906 51.359375 C 164.070312 51.660156 164.136719 51.960938 164.167969 52.261719 C 164.203125 52.5625 164.203125 52.863281 164.167969 53.042969 C 162.425781 54.1875 161.304688 53.648438 160.746094 53.042969 C 160.546875 52.742188 160.414062 52.625 160.347656 52.503906 C 160.183594 52.320312 160.019531 52.441406 159.953125 52.683594 C 159.886719 52.925781 159.855469 53.285156 159.953125 53.40625 C 160.019531 53.585938 160.117188 53.886719 160.21875 54.066406 C 160.316406 54.367188 160.382812 54.671875 160.382812 55.03125 C 160.382812 56.113281 159.855469 56.476562 159.195312 56.476562 C 158.539062 56.476562 158.042969 56.113281 158.042969 55.03125 L 158.042969 54.429688 C 158.042969 54.128906 157.910156 53.828125 157.746094 53.886719 C 157.613281 53.949219 157.484375 54.128906 157.417969 54.308594 L 157.21875 54.910156 C 157.1875 55.03125 156.164062 59.304688 155.078125 58.34375 C 154.355469 57.742188 154.714844 56.175781 155.078125 55.03125 C 155.179688 54.671875 155.011719 54.367188 154.816406 54.429688 C 154.484375 54.671875 154.089844 54.789062 153.792969 54.429688 C 153.136719 53.765625 152.90625 52.441406 153.136719 51.539062 C 153.367188 50.816406 153.628906 49.914062 154.125 49.25 C 154.222656 49.070312 154.222656 48.769531 154.125 48.648438 C 153.859375 48.167969 153.792969 47.867188 153.894531 47.324219 C 154.058594 46.722656 154.386719 46.484375 155.046875 46.664062 C 155.804688 46.902344 156.199219 48.46875 156.460938 50.15625 C 156.5625 50.757812 156.859375 51.117188 157.1875 50.996094 C 159.757812 49.855469 161.667969 46.484375 163.179688 44.195312 C 163.246094 44.253906 163.28125 44.316406 163.3125 44.4375 L 163.707031 45.039062 L 163.90625 44.917969 C 167.726562 42.992188 171.285156 36.007812 172.140625 31.851562 C 172.4375 30.46875 172.601562 29.082031 172.667969 27.699219 C 178.003906 27.398438 177.90625 27.097656 180.277344 26.375 C 182.121094 25.773438 184.589844 27.757812 185.777344 29.988281 C 186.601562 32.035156 186.566406 35.105469 187.523438 36.25 M 196.480469 25.410156 C 196.382812 27.941406 195.722656 29.566406 194.242188 30.410156 C 192.757812 31.132812 190.058594 32.335938 187.257812 31.492188 C 187.0625 31.433594 186.832031 30.289062 186.765625 29.867188 C 186.765625 29.804688 186.765625 29.746094 186.796875 29.746094 C 189.367188 30.527344 193.15625 29.804688 194.308594 28.421875 C 195.855469 26.617188 195.328125 21.679688 193.320312 20.234375 C 190.320312 18.128906 183.933594 20.894531 179.550781 21.015625 C 177.9375 21.078125 176.226562 21.015625 174.347656 18.007812 C 173.128906 15.839844 173.03125 12.226562 173.886719 9.699219 C 174.710938 7.472656 176.191406 6.628906 177.574219 6.808594 C 181.132812 7.351562 182.1875 3.015625 185.214844 1.8125 C 188.148438 0.667969 189.5 2.292969 189.894531 2.835938 C 189.925781 2.894531 189.894531 3.015625 189.859375 3.015625 C 189.332031 2.835938 187.523438 2.414062 185.183594 4.21875 C 184.328125 4.820312 183.570312 6.027344 182.910156 6.929688 C 182.878906 6.988281 182.878906 7.050781 182.945312 7.109375 C 184.492188 7.773438 184.65625 8.433594 186.371094 8.675781 C 190.386719 9.277344 191.34375 6.085938 193.417969 6.867188 C 195 7.472656 195.722656 9.21875 195.921875 9.757812 C 195.953125 9.820312 195.921875 9.878906 195.886719 9.878906 C 189.695312 7.171875 190.320312 12.105469 186.996094 12.589844 C 184.984375 12.890625 182.085938 9.699219 181.230469 9.941406 C 181.199219 9.941406 181.199219 10 181.199219 10 C 181.164062 10.601562 180.867188 14.9375 178.957031 13.972656 C 178.925781 13.972656 178.925781 13.851562 178.925781 13.792969 C 179.648438 12.527344 179.355469 10.601562 178.332031 10 C 177.675781 9.636719 176.816406 9.699219 176.09375 10.242188 C 174.941406 11.082031 174.480469 14.035156 175.171875 15.898438 C 176.191406 18.730469 177.839844 19.332031 180.109375 19.03125 C 182.484375 18.730469 184.0625 18.429688 187.421875 17.585938 C 188.410156 17.34375 190.320312 16.984375 192.132812 16.863281 C 192 17.222656 191.902344 17.523438 191.804688 17.945312 C 191.769531 18.007812 191.769531 18.128906 191.804688 18.246094 C 191.835938 18.367188 191.9375 18.429688 192 18.367188 C 192.199219 18.128906 192.363281 17.886719 192.5625 17.707031 L 192.859375 17.34375 C 192.957031 17.222656 193.054688 17.105469 193.121094 16.921875 L 193.121094 16.863281 C 193.484375 16.863281 193.847656 16.863281 194.175781 16.921875 L 194.140625 17.042969 C 193.976562 17.464844 193.847656 17.886719 193.746094 18.367188 C 193.714844 18.488281 193.714844 18.609375 193.746094 18.667969 C 193.8125 18.789062 193.878906 18.789062 193.945312 18.730469 C 194.140625 18.429688 194.339844 18.128906 194.539062 17.945312 L 194.867188 17.523438 C 194.964844 17.40625 195.066406 17.285156 195.164062 17.105469 C 195.757812 17.222656 196.21875 17.464844 196.449219 17.824219 L 195.128906 19.8125 C 194.933594 19.753906 196.578125 21.917969 196.480469 25.410156 "/>
</g>
</svg>
